#!OML:ASF E:\I on waltz\AllaLogoMonkeySwing\Project 1\Capture day 1\Session 1\Subject1.ASF
:FULLY-SPECIFIED
:DEGREES
481
root 1.82966 8.58507 -0.307311 12.6538 6.06085 -1.82805
lowerback 48.9484 -3.83678 5.85248
upperback 12.5814 -1.52189 0.999863
thorax -6.29598 -0.597652 -1.04163
lowerneck -6.43751 1.1383 -2.59278
upperneck 15.1895 2.20967 -2.40535
head 5.64828 0.756148 -0.177781
rclavicle -1.59028e-015 -1.38155e-014
rhumerus -20.7533 18.0336 -71.0885
rradius 137.666
rwrist 4.91611
rhand -27.4768 -16.6899
rfingers 7.12502
rthumb -0.88057 -46.6679
lclavicle -1.59028e-015 -1.38155e-014
lhumerus -40.4166 -20.1684 87.9812
lradius 140.931
lwrist -3.68424
lhand -28.217 -52.0077
lfingers 7.12502
lthumb -1.59548 -22.0339
rfemur -118.325 -18.566 36.243
rtibia 127.537
rfoot -24.783 -2.62971
rtoes 22.1332
lfemur -115.519 4.0656 -28.3557
ltibia 126.032
lfoot -26.7173 -5.53288
ltoes -8.57088
482
root 1.82421 8.38495 -0.338752 11.4834 6.20458 -1.96006
lowerback 48.8093 -3.94462 6.031
upperback 12.6821 -1.57305 1.02758
thorax -6.16129 -0.613796 -1.0783
lowerneck -6.09947 1.09557 -2.54012
upperneck 14.4293 2.08461 -2.23523
head 5.35114 0.727925 -0.145782
rclavicle -1.19271e-015 2.10712e-014
rhumerus -20.6954 18.8484 -70.93
rradius 137.335
rwrist 7.17018
rhand -27.9212 -16.7094
rfingers 7.12502
rthumb -1.30983 -46.6851
lclavicle -1.19271e-015 2.10712e-014
lhumerus -40.4374 -20.7049 87.7688
lradius 140.178
lwrist -3.28949
lhand -27.7992 -50.0666
lfingers 7.12502
lthumb -1.19193 -20.0902
rfemur -119.023 -19.0914 36.6476
rtibia 128.911
rfoot -24.5401 -2.49082
rtoes 22.4196
lfemur -116.104 4.25354 -28.5975
ltibia 127.389
lfoot -26.4489 -5.7443
ltoes -8.01072
483
root 1.82166 8.20712 -0.373842 10.3038 6.29789 -2.17532
lowerback 48.6604 -4.04265 6.28266
upperback 12.7598 -1.58276 1.05144
thorax -6.04748 -0.610318 -1.1695
lowerneck -5.83409 1.05099 -2.60532
upperneck 13.6418 1.95179 -1.89033
head 5.05701 0.699195 -0.0402848
rclavicle 1.2921e-014 -2.34566e-014
rhumerus -20.5616 19.445 -70.7016
rradius 137.075
rwrist 8.03716
rhand -27.9437 -17.3838
rfingers 7.12502
rthumb -1.33151 -47.3594
lclavicle 1.2921e-014 -2.34566e-014
lhumerus -40.1924 -21.137 87.4654
lradius 139.373
lwrist -3.57486
lhand -28.1025 -49.9858
lfingers 7.12502
lthumb -1.4849 -20.0112
rfemur -119.46 -19.559 37.0499
rtibia 130.095
rfoot -24.3712 -2.45966
rtoes 22.3366
lfemur -116.557 4.47919 -28.7496
ltibia 128.584
lfoot -26.1888 -5.91466
ltoes -7.39726
484
root 1.82212 8.0459 -0.410811 9.06989 6.41687 -2.33667
lowerback 48.517 -4.21514 6.54948
upperback 12.8161 -1.6784 1.00724
thorax -5.96299 -0.642311 -1.30557
lowerneck -5.73501 1.02434 -2.61013
upperneck 12.97 1.85423 -1.57515
head 4.82935 0.683394 0.0492547
rclavicle -7.35503e-015 3.96575e-014
rhumerus -20.4998 19.9509 -70.5862
rradius 136.364
rwrist 9.72242
rhand -27.8182 -17.1527
rfingers 7.12502
rthumb -1.21031 -47.129
lclavicle -7.35503e-015 3.96575e-014
lhumerus -39.7805 -21.418 87.0893
lradius 138.652
lwrist -4.53945
lhand -29.8137 -51.9186
lfingers 7.12502
lthumb -3.13754 -21.962
rfemur -119.748 -20.1816 37.3739
rtibia 131.154
rfoot -24.2707 -2.41684
rtoes 21.5903
lfemur -116.769 4.56094 -28.8741
ltibia 129.648
lfoot -25.932 -5.86909
ltoes -7.54691
485
root 1.81976 7.89408 -0.449943 7.8493 6.49652 -2.35958
lowerback 48.2949 -4.30252 6.67105
upperback 12.9004 -1.74717 0.986785
thorax -5.83807 -0.664615 -1.3634
lowerneck -5.86662 0.958493 -2.70783
upperneck 12.3919 1.72647 -1.24181
head 4.67007 0.64557 0.159322
rclavicle -6.36111e-015 9.24349e-015
rhumerus -20.3756 20.1529 -70.4629
rradius 135.659
rwrist 11.143
rhand -27.5135 -16.8739
rfingers 7.12502
rthumb -0.916026 -46.8517
lclavicle -6.36111e-015 9.24349e-015
lhumerus -39.162 -21.5779 86.7982
lradius 138.091
lwrist -5.21658
lhand -31.3057 -52.7602
lfingers 7.12502
lthumb -4.57836 -22.8297
rfemur -120.023 -20.848 37.5267
rtibia 132.113
rfoot -24.1166 -2.0981
rtoes 21.4446
lfemur -116.863 4.59821 -29.0676
ltibia 130.598
lfoot -25.5882 -5.71132
ltoes -7.86368
486
root 1.81394 7.74117 -0.484318 6.69502 6.45873 -2.32589
lowerback 47.8677 -4.24329 6.63724
upperback 13.0428 -1.73589 0.997606
thorax -5.61778 -0.653321 -1.3557
lowerneck -6.06763 0.889158 -2.81012
upperneck 11.4016 1.60497 -0.972849
head 4.8842 0.609138 0.268937
rclavicle 3.97569e-016 1.14301e-014
rhumerus -20.206 20.019 -70.2665
rradius 135.046
rwrist 12.7914
rhand -27.508 -16.8297
rfingers 7.12502
rthumb -0.910725 -46.8075
lclavicle 3.97569e-016 1.14301e-014
lhumerus -38.3361 -21.6054 86.5094
lradius 137.639
lwrist -5.0146
lhand -31.5732 -52.8614
lfingers 7.12502
lthumb -4.8366 -22.9366
rfemur -120.431 -21.3737 37.5917
rtibia 133.058
rfoot -23.8365 -1.5655
rtoes 22.0403
lfemur -117.059 4.75462 -29.2836
ltibia 131.538
lfoot -25.2106 -5.64142
ltoes -7.85354
487
root 1.80845 7.59797 -0.518808 5.37433 6.36103 -2.32514
lowerback 46.6753 -4.06729 6.49712
upperback 14.0552 -1.73619 1.0787
thorax -5.48951 -0.63776 -1.3951
lowerneck -5.96681 0.860347 -2.85207
upperneck 10.7055 1.51924 -0.661475
head 4.60455 0.592824 0.373527
rclavicle -6.75868e-015 3.26007e-014
rhumerus -20.1273 19.6814 -70.1802
rradius 134.493
rwrist 14.7591
rhand -27.9788 -16.8007
rfingers 7.12502
rthumb -1.3654 -46.7761
lclavicle -6.75868e-015 3.26007e-014
lhumerus -37.5666 -21.6277 86.2512
lradius 137.147
lwrist -4.71018
lhand -31.3169 -52.063
lfingers 7.12502
lthumb -4.58917 -22.1327
rfemur -120.516 -21.8831 37.6427
rtibia 133.935
rfoot -23.5636 -1.21574
rtoes 22.4544
lfemur -116.984 5.02371 -29.4093
ltibia 132.433
lfoot -24.9701 -5.62294
ltoes -7.87027
488
root 1.80271 7.4773 -0.567083 3.85796 6.24284 -2.29571
lowerback 46.7356 -4.0036 6.40954
upperback 14.0277 -1.70101 1.01447
thorax -5.53633 -0.62121 -1.43338
lowerneck -5.86167 0.814246 -2.89941
upperneck 10.0536 1.41397 -0.337156
head 4.34434 0.56534 0.481163
rclavicle 6.95746e-015 -1.86858e-014
rhumerus -20.1353 19.392 -70.1889
rradius 133.97
rwrist 16.2831
rhand -28.4955 -17.0984
rfingers 7.12502
rthumb -1.86444 -47.07
lclavicle 6.95746e-015 -1.86858e-014
lhumerus -36.9063 -21.7861 86.1219
lradius 136.529
lwrist -4.99902
lhand -31.4734 -50.4391
lfingers 7.12502
lthumb -4.74029 -20.5121
rfemur -120.104 -22.4457 37.5863
rtibia 134.614
rfoot -23.3869 -1.03303
rtoes 22.2672
lfemur -116.434 5.33988 -29.5192
ltibia 133.128
lfoot -24.9297 -5.53189
ltoes -8.3102
489
root 1.79596 7.36248 -0.619606 2.35827 6.11534 -2.22133
lowerback 46.6891 -3.92422 6.21556
upperback 13.9852 -1.70487 0.930065
thorax -5.57908 -0.62553 -1.42654
lowerneck -5.74603 0.780002 -2.83314
upperneck 9.39372 1.33458 -0.191137
head 4.08396 0.54496 0.509067
rclavicle 3.97569e-016 -2.32578e-014
rhumerus -20.1099 19.3475 -70.2871
rradius 133.403
rwrist 17.0453
rhand -28.7119 -17.6337
rfingers 7.12502
rthumb -2.07347 -47.6034
lclavicle 3.97569e-016 -2.32578e-014
lhumerus -36.2883 -21.9469 85.915
lradius 135.834
lwrist -5.51393
lhand -31.7485 -48.8341
lfingers 7.12502
lthumb -5.0059 -18.9132
rfemur -119.709 -23.0053 37.5169
rtibia 135.231
rfoot -23.2027 -0.860662
rtoes 21.7331
lfemur -115.839 5.66099 -29.6446
ltibia 133.718
lfoot -24.9441 -5.45955
ltoes -8.95783
490
root 1.79106 7.25055 -0.673028 0.66872 6.05252 -2.28145
lowerback 46.7193 -3.95019 6.12549
upperback 13.9566 -1.782 0.835995
thorax -5.6266 -0.660691 -1.44924
lowerneck -5.51696 0.772322 -2.64903
upperneck 8.66583 1.2889 -0.166368
head 3.78086 0.539498 0.475968
rclavicle 2.20651e-014 1.98785e-016
rhumerus -20.0387 19.4576 -70.5672
rradius 132.741
rwrist 17.6254
rhand -28.5796 -18.0537
rfingers 7.12502
rthumb -1.94569 -48.0246
lclavicle 2.20651e-014 1.98785e-016
lhumerus -35.6682 -22.0771 85.6105
lradius 135.06
lwrist -6.04408
lhand -31.9734 -48.0472
lfingers 7.12502
lthumb -5.22307 -18.1316
rfemur -119.107 -23.7377 37.5497
rtibia 135.836
rfoot -23.0358 -0.6057
rtoes 21.7252
lfemur -115.07 6.0471 -29.6025
ltibia 134.298
lfoot -24.8391 -5.58637
ltoes -9.64761
491
root 1.78566 7.15847 -0.739776 -1.49552 6.01987 -2.36637
lowerback 48.2759 -4.1224 6.18631
upperback 12.9621 -1.8026 0.660773
thorax -5.79306 -0.678302 -1.46965
lowerneck -5.35293 0.730615 -2.5558
upperneck 7.94342 1.20335 -0.0612977
head 3.4962 0.513449 0.484364
rclavicle -1.8487e-014 2.3059e-014
rhumerus -20.0164 19.4018 -70.8234
rradius 132.039
rwrist 18.7255
rhand -27.8382 -18.5444
rfingers 7.12502
rthumb -1.22968 -48.5206
lclavicle -1.8487e-014 2.3059e-014
lhumerus -34.9386 -22.3461 85.4198
lradius 134.134
lwrist -6.7757
lhand -32.1807 -47.9442
lfingers 7.12502
lthumb -5.42323 -18.0336
rfemur -117.693 -24.81 37.3888
rtibia 136.283
rfoot -23.1002 -0.230479
rtoes 22.0862
lfemur -113.557 6.56079 -29.472
ltibia 134.759
lfoot -24.7862 -5.77432
ltoes -10.4299
492
root 1.77455 7.04594 -0.792951 -3.12085 5.82457 -2.23716
lowerback 47.992 -3.91803 5.90101
upperback 13.0378 -1.72644 0.623585
thorax -5.6719 -0.644956 -1.41719
lowerneck -5.51838 0.68829 -2.52276
upperneck 7.43629 1.13073 0.108832
head 3.35241 0.490797 0.529171
rclavicle 8.94531e-015 -1.72943e-014
rhumerus -20.0538 19.1334 -71.0094
rradius 131.306
rwrist 20.4373
rhand -27.1798 -18.517
rfingers 7.12502
rthumb -0.593707 -48.496
lclavicle 8.94531e-015 -1.72943e-014
lhumerus -34.0901 -22.6414 85.2395
lradius 133.068
lwrist -7.62412
lhand -32.2832 -47.65
lfingers 7.12502
lthumb -5.52216 -17.742
rfemur -117.051 -25.3741 37.0986
rtibia 136.812
rfoot -22.9117 0.0870661
rtoes 22.5573
lfemur -112.826 7.09487 -29.5933
ltibia 135.336
lfoot -24.6786 -5.95368
ltoes -10.7122
493
root 1.75983 6.92642 -0.844432 -4.77038 5.6078 -2.32967
lowerback 46.7435 -3.6555 5.68236
upperback 14.0527 -1.6487 0.712846
thorax -5.5262 -0.60116 -1.41713
lowerneck -5.87807 0.671064 -2.42542
upperneck 6.96255 1.10034 0.184835
head 3.25842 0.486013 0.535396
rclavicle -7.55382e-015 -1.17283e-014
rhumerus -20.116 18.8751 -71.2624
rradius 130.576
rwrist 22.3774
rhand -27.0992 -18.079
rfingers 7.12502
rthumb -0.515879 -48.0581
lclavicle -7.55382e-015 -1.17283e-014
lhumerus -33.1221 -22.8429 84.9134
lradius 131.955
lwrist -8.35306
lhand -32.3702 -46.7646
lfingers 7.12502
lthumb -5.60616 -16.8588
rfemur -116.4 -25.7252 37.0054
rtibia 137.316
rfoot -22.5669 0.296002
rtoes 23.3229
lfemur -112.286 7.86 -29.568
ltibia 135.942
lfoot -24.5392 -6.38745
ltoes -10.6018
494
root 1.7371 6.79869 -0.891129 -6.52772 5.26215 -2.94085
lowerback 46.387 -3.4988 5.93037
upperback 13.9637 -1.38437 0.790764
thorax -5.52568 -0.480086 -1.57334
lowerneck -5.27921 0.636088 -2.28388
upperneck 6.08466 1.00805 0.352879
head 2.845 0.458312 0.550794
rclavicle -2.18663e-015 -1.41137e-014
rhumerus -20.7063 18.7202 -71.7117
rradius 129.942
rwrist 24.1618
rhand -27.0892 -18.1277
rfingers 7.12502
rthumb -0.506197 -48.1068
lclavicle -2.18663e-015 -1.41137e-014
lhumerus -32.5124 -23.1826 84.66
lradius 130.875
lwrist -9.05133
lhand -32.5374 -45.4105
lfingers 7.12502
lthumb -5.76759 -15.509
rfemur -115.582 -25.6749 37.4394
rtibia 137.829
rfoot -22.1647 0.142079
rtoes 23.9915
lfemur -112.073 9.27643 -29.1763
ltibia 136.648
lfoot -24.3195 -7.37459
ltoes -10.2165
495
root 1.71644 6.72827 -0.963514 -8.92323 5.21318 -2.30931
lowerback 48.2425 -3.39553 5.06849
upperback 12.8313 -1.48136 0.633705
thorax -5.94407 -0.562729 -1.10995
lowerneck -4.69821 0.710951 -2.87521
upperneck 5.2471 1.10012 0.866666
head 2.45088 0.514747 0.810729
rclavicle -1.19271e-015 -1.98785e-016
rhumerus -20.9418 19.0971 -71.9635
rradius 129.235
rwrist 25.3377
rhand -26.6695 -18.4769
rfingers 7.12502
rthumb -0.100891 -48.4566
lclavicle -1.19271e-015 -1.98785e-016
lhumerus -31.9549 -22.8845 84.6014
lradius 129.761
lwrist -9.96069
lhand -32.7205 -44.0104
lfingers 7.12502
lthumb -5.94437 -14.1138
rfemur -113.783 -27.0304 36.4516
rtibia 138.108
rfoot -22.0797 0.835642
rtoes 24.6158
lfemur -109.724 9.96198 -29.5128
ltibia 136.765
lfoot -24.4979 -7.68126
ltoes -9.27936
